<svg xmlns="http://www.w3.org/2000/svg" width="113" height="92" viewBox="0 0 113 92">
    <defs>
        <linearGradient id="a" x1="41.198%" x2="78.566%" y1="41.499%" y2="100%">
            <stop offset="0%" stop-color="#1576C8"/>
            <stop offset="100%" stop-color="#05709D"/>
        </linearGradient>
    </defs>
    <g fill="none" fill-rule="evenodd">
        <path fill="url(#a)" d="M56.47 11.543l4.35-3.768C66.804 2.572 74.177 0 81.61 0c8.702 0 17.283 3.529 23.507 10.407 11.12 12.44 10.334 31.161-1.45 42.645L61.57 90.084a7.746 7.746 0 0 1-10.2 0L9.334 53.052C-2.45 41.628-3.236 22.848 7.884 10.407 14.108 3.529 22.689 0 31.39 0A31.627 31.627 0 0 1 52.18 7.775l4.29 3.768"/>
        <path stroke="#FFF" stroke-linecap="round" stroke-linejoin="round" stroke-width="5" d="M12 28a23.945 23.945 0 0 1 2.194-5.896 23.643 23.643 0 0 1 2.87-4.225C21.55 12.67 27.731 10 34 10"/>
    </g>
</svg>
