<svg xmlns="http://www.w3.org/2000/svg" width="49" height="49" viewBox="0 0 49 49">
    <defs>
        <linearGradient id="a" x1="39.042%" y1="50%" y2="100%">
            <stop offset="0%" stop-color="#1576C8"/>
            <stop offset="100%" stop-color="#05709D"/>
        </linearGradient>
    </defs>
    <path fill="url(#a)" fill-rule="evenodd" d="M99.826 76.966s4.133-2.366 5.216-2.935c1.079-.57 2.196-.715 2.875-.3 1.028.629 9.66 6.371 10.387 6.88.727.509 1.077 1.963.078 3.389-.996 1.425-5.587 7.06-7.533 7-1.949-.064-10.051-.241-25.33-15.525-15.276-15.278-15.456-23.382-15.518-25.33-.063-1.949 5.572-6.541 6.997-7.538 1.427-.995 2.884-.62 3.39.08.576.797 6.252 9.402 6.877 10.388.428.674.27 1.798-.3 2.878-.568 1.082-2.934 5.215-2.934 5.215s1.668 2.845 7.309 8.486c5.642 5.64 8.486 7.312 8.486 7.312z" transform="translate(-70 -42)"/>
</svg>
