<svg xmlns="http://www.w3.org/2000/svg" xmlns:xlink="http://www.w3.org/1999/xlink" width="545" height="340" viewBox="0 0 545 340">
    <defs>
        <path id="a" d="M0 61h123.333V.796H0z"/>
        <path id="c" d="M164.333 76.838V.13H.737v76.708z"/>
    </defs>
    <g fill="none" fill-rule="evenodd">
        <g transform="translate(228 46.87)">
            <mask id="b" fill="#fff">
                <use xlink:href="#a"/>
            </mask>
            <path fill="#BCD5F4" d="M14.747 59.463a31.907 31.907 0 0 1-1.414-9.417c0-17.627 14.29-31.916 31.917-31.916 17.627 0 31.917 14.29 31.917 31.916 0 .875-.045 1.74-.114 2.596a24.785 24.785 0 0 1 9.085-1.72c8.193 0 15.46 3.964 19.988 10.078h17.207c0-13.183-10.687-23.87-23.87-23.87-4.015 0-7.796.996-11.116 2.747C85.747 17.87 67.04.797 44.333.797 19.85.796 0 20.644 0 45.13c0 5.018.846 9.835 2.382 14.333h12.365z" mask="url(#b)" opacity=".4"/>
        </g>
        <g transform="translate(306 2.87)">
            <mask id="d" fill="#fff">
                <use xlink:href="#c"/>
            </mask>
            <path fill="#BCD5F4" d="M17.49 31.796c4.198-6.42 11.446-10.667 19.69-10.667 10.874 0 20.02 7.384 22.708 17.41a23.166 23.166 0 0 1 16.195-6.576c12.681 0 22.983 10.154 23.238 22.774a34.326 34.326 0 0 1 18.846-5.608c16.437 0 30.18 11.5 33.647 26.892l12.424.817c.057-.897.095-1.798.095-2.709 0-23.379-18.953-42.333-42.333-42.333-3.835 0-7.547.52-11.08 1.475-1.81-11.896-12.083-21.012-24.485-21.012a24.69 24.69 0 0 0-17.507 7.248C62.496 7.951 50.164.13 36 .13 19.862.13 6.1 10.281.737 24.544l16.753 7.252z" mask="url(#d)" opacity=".4"/>
        </g>
        <g stroke="#7F7F7F" stroke-width="4">
            <path fill="#BCD5F4" fill-opacity=".4" d="M211.458 166.386c-9.83 0-17.875 8.043-17.875 17.875v40.875c0 7.563-6.13 13.695-13.695 13.695h-15.222V94.552c0-24.2-19.8-44-44-44s-44 19.8-44 44v96.334H41c-7.667-1-6.334-13-6.334-13v-73.667c0-8.983-7.35-16.334-16.333-16.334C9.35 87.885 2 95.235 2 104.22v84.667s.666 30.667 37.666 34.667h37v113l88 .666v-61.834h19.917c24.715 0 44.75-20.034 44.75-44.75v-46.374c0-9.832-8.044-17.875-17.875-17.875zM285.255 251.995c4.932 0 8.967 4.036 8.967 8.968v20.506a6.87 6.87 0 0 0 6.87 6.87h7.637v-72.38c0-12.14 9.932-22.073 22.073-22.073s22.073 9.933 22.073 22.073v48.327h17.893c3.846-.501 3.177-6.521 3.177-6.521v-36.957c0-4.506 3.688-8.193 8.194-8.193 4.507 0 8.194 3.687 8.194 8.193v42.475s-.334 15.385-18.896 17.39h-18.562v56.689l-44.146.335v-31.02h-9.992c-12.399 0-22.45-10.051-22.45-22.45v-23.264c0-4.932 4.035-8.968 8.968-8.968z"/>
            <path stroke-linecap="round" stroke-linejoin="round" d="M107.333 148.386v22.5M107.333 201.886v94.5M6.333 337.219h20M39.333 337.219h190M243.833 337.219h20.76M276.833 337.219h195M200.833 110.885h8M216.833 110.885h16M360.333 110.885h7M377.333 110.885h43.5M495.614 78.885h-23.78M502.833 78.885h9.5M524.333 78.885h18.5M351.333 109.073c0-14.946-12.116-27.062-27.062-27.062-2.454 0-4.829.332-7.088.943-3.59-21.045-21.907-37.069-43.975-37.069-24.646 0-44.625 19.98-44.625 44.626a44.45 44.45 0 0 0 4.774 20.104M393.276 14.5a26.096 26.096 0 0 0-17.81 6.993C368.939 9.863 356.496 2 342.21 2c-21.056 0-38.125 17.07-38.125 38.125M408.962 19.718a26.048 26.048 0 0 0-9.877-4.57M445.507 36.992a43.613 43.613 0 0 0-17.424-3.607c-3.22 0-6.357.358-9.38 1.02a26.148 26.148 0 0 0-5.925-11.193M471.8 78.884c.021-.58.033-1.163.033-1.749 0-15.162-7.713-28.522-19.43-36.372"/>
        </g>
    </g>
</svg>
