<?xml version="1.0" encoding="UTF-8"?>
<svg width="35px" height="35px" viewBox="0 0 35 35" version="1.1" xmlns="http://www.w3.org/2000/svg" xmlns:xlink="http://www.w3.org/1999/xlink">
    <!-- Generator: Sketch 47.1 (45422) - http://www.bohemiancoding.com/sketch -->
    <title>Combined shape 3312</title>
    <desc>Created with Sketch.</desc>
    <defs></defs>
    <g id="תפריט" stroke="none" stroke-width="1" fill="none" fill-rule="evenodd">
        <g id="עמוד-הבית-פלזמה-המלצה-שלנו" transform="translate(-84.000000, -58.000000)" fill="#FFFFFF">
            <g id="Group-23" transform="translate(43.000000, 1.000000)">
                <g id="Group-16">
                    <path d="M57.394602,74.1239472 L42.039156,89.47341 C41.63533,89.879554 41.63533,90.5376 42.039156,90.943934 C42.243976,91.147196 42.51237,91.248618 42.776964,91.248618 C43.041558,91.248618 43.309572,91.147196 43.513328,90.943934 L58.8660569,75.5949399 L74.222306,90.946366 C74.424238,91.1494 74.689212,91.25086 74.95525,91.25086 C75.220034,91.25086 75.488048,91.1494 75.691766,90.946366 C76.09886,90.539842 76.09886,89.881796 75.691766,89.475272 L60.337501,74.1238538 L75.691766,58.773324 C76.09886,58.36737 76.09886,57.709286 75.691766,57.3028 C75.28452,56.896466 74.62617,56.896466 74.222306,57.3028 L58.8662485,72.6528741 L43.513328,57.3028 C43.10441,56.896466 42.449328,56.896466 42.039156,57.3028 C41.63533,57.709286 41.63533,58.36737 42.039156,58.773324 L57.394602,74.1239472 Z" id="Combined-shape-3312"></path>
                </g>
            </g>
        </g>
    </g>
</svg>