<svg xmlns="http://www.w3.org/2000/svg" width="372" height="166" viewBox="0 0 372 166">
    <g fill="none" fill-rule="evenodd">
        <path fill="#C6D1DB" d="M46 69.734L73.952 48 93 78.175 72.698 92 52 87.91z"/>
        <path stroke="#1C2632" stroke-linecap="round" stroke-linejoin="round" stroke-width="4" d="M46 69.734L73.952 48 93 78.175 72.698 92 52 87.91z"/>
        <path fill="#E4EEFB" d="M67 143h102V10H67z"/>
        <path stroke="#1C2632" stroke-linecap="round" stroke-linejoin="round" stroke-width="4" d="M67 143h102V10H67z"/>
        <path fill="#FFF" d="M46 163V70l79.763 65.877L131 163z"/>
        <g stroke="#1C2632" stroke-linecap="round" stroke-linejoin="round" stroke-width="4">
            <path d="M46.2 163.998V70.202l79.575 66.441L131 163.998zM46.2 163.998L102.37 117.1"/>
        </g>
        <path fill="#FFF" d="M307.352 135.746c-10.149-39.51-50.114-76.11-92.57-76.11-43.334 0-82.238 33.419-92.226 76.162"/>
        <path stroke="#1C2632" stroke-linecap="round" stroke-linejoin="round" stroke-width="4" d="M307.352 135.746c-10.149-39.51-50.114-76.11-92.57-76.11-43.334 0-82.238 33.419-92.226 76.162"/>
        <path fill="#E4EEFB" d="M122.556 135.798a93.532 93.532 0 0 0-2.29 27.2h189.031c1.142-8.966.383-18.186-1.945-27.252"/>
        <path stroke="#1C2632" stroke-linecap="round" stroke-linejoin="round" stroke-width="4" d="M122.556 135.798a93.532 93.532 0 0 0-2.29 27.2h189.031c1.142-8.966.383-18.186-1.945-27.252"/>
        <path fill="#FFF" d="M249.825 27.952a5.899 5.899 0 0 0-4.255-5.555c-27.348-7.959-51.214-3.019-60.536-.406a5.88 5.88 0 0 0-4.287 5.5l-.59 21.21a5.91 5.91 0 0 1-3.194 5.067c-9.447 4.927-20.325 13.07-26.146 17.63a5.906 5.906 0 0 1-7.934-.588l-20.28-21.435a5.88 5.88 0 0 1 .085-8.177c23.7-23.952 56.624-38.797 93.022-38.797 36.165 0 68.901 14.656 92.568 38.34 2.273 2.276 2.283 5.956.039 8.259l-21.07 21.599a5.904 5.904 0 0 1-8.21.235c-5.898-5.391-16.892-14.724-25.045-17.44-2.653-.885-4.267-3.567-3.897-6.333.038-.292.056-.587.05-.882l-.32-18.227z"/>
        <path stroke="#1C2632" stroke-linecap="round" stroke-linejoin="round" stroke-width="4" d="M250.145 46.179l-.32-18.227a5.899 5.899 0 0 0-4.255-5.555c-27.348-7.959-51.214-3.019-60.536-.406a5.88 5.88 0 0 0-4.287 5.5l-.59 21.21a5.91 5.91 0 0 1-3.194 5.067c-9.447 4.927-20.325 13.07-26.146 17.63a5.906 5.906 0 0 1-7.934-.588l-20.28-21.435a5.88 5.88 0 0 1 .085-8.177c23.7-23.952 56.624-38.797 93.022-38.797 36.165 0 68.901 14.656 92.568 38.34 2.273 2.276 2.283 5.956.039 8.259l-21.07 21.599a5.904 5.904 0 0 1-8.21.235c-5.898-5.391-16.892-14.724-25.045-17.44-2.653-.885-4.267-3.567-3.897-6.333.038-.292.056-.587.05-.882z"/>
        <path fill="#E4EEFB" d="M215.307 121.393c-25.808 0-46.73-20.877-46.73-46.632 0-25.754 20.922-46.631 46.73-46.631 25.809 0 46.73 20.877 46.73 46.631 0 25.755-20.921 46.632-46.73 46.632z"/>
        <path stroke="#1C2632" stroke-linecap="round" stroke-linejoin="round" stroke-width="4" d="M262.037 74.761c0 25.755-20.921 46.632-46.73 46.632-25.808 0-46.73-20.877-46.73-46.632 0-25.754 20.922-46.631 46.73-46.631 25.809 0 46.73 20.877 46.73 46.631z"/>
        <path fill="#FFF" stroke="#1C2632" stroke-linecap="round" stroke-linejoin="round" stroke-width="4" d="M231.614 74.761c0 8.988-7.3 16.273-16.307 16.273-9.006 0-16.308-7.285-16.308-16.273 0-8.987 7.302-16.272 16.308-16.272 9.007 0 16.307 7.285 16.307 16.272z"/>
        <path fill="#1C2632" d="M218.731 47.023a3.42 3.42 0 0 1-3.424-3.416 3.42 3.42 0 0 1 3.424-3.417 3.42 3.42 0 0 1 3.424 3.417 3.42 3.42 0 0 1-3.424 3.416zM218.731 108.127a3.42 3.42 0 0 1-3.424-3.417 3.42 3.42 0 0 1 3.424-3.417 3.42 3.42 0 0 1 3.424 3.417 3.42 3.42 0 0 1-3.424 3.417zM237.274 57.445a3.42 3.42 0 0 1-3.424-3.417 3.42 3.42 0 0 1 3.424-3.417 3.42 3.42 0 0 1 3.424 3.417 3.42 3.42 0 0 1-3.424 3.417zM197.392 51.415a3.42 3.42 0 0 1-3.424-3.417 3.42 3.42 0 0 1 3.424-3.417 3.42 3.42 0 0 1 3.424 3.417 3.42 3.42 0 0 1-3.424 3.417zM197.392 103.828a3.42 3.42 0 0 1-3.424-3.417 3.42 3.42 0 0 1 3.424-3.417 3.42 3.42 0 0 1 3.424 3.417 3.42 3.42 0 0 1-3.424 3.417zM184.167 67.047a3.42 3.42 0 0 1-3.423-3.416 3.42 3.42 0 0 1 3.423-3.418 3.42 3.42 0 0 1 3.425 3.418 3.42 3.42 0 0 1-3.425 3.416zM184.167 87.916a3.42 3.42 0 0 1-3.423-3.417 3.42 3.42 0 0 1 3.423-3.417 3.42 3.42 0 0 1 3.425 3.417 3.42 3.42 0 0 1-3.425 3.417zM237.274 97.868a3.42 3.42 0 0 1-3.424-3.416 3.42 3.42 0 0 1 3.424-3.417 3.42 3.42 0 0 1 3.424 3.417 3.42 3.42 0 0 1-3.424 3.416zM245.233 78.178a3.42 3.42 0 0 1-3.424-3.417 3.42 3.42 0 0 1 3.424-3.416 3.42 3.42 0 0 1 3.425 3.416 3.42 3.42 0 0 1-3.425 3.417z"/>
        <path stroke="#1C2632" stroke-linecap="round" stroke-linejoin="round" stroke-width="4" d="M122.559 135.799h184.593M241.809 149.533h9.553M259.016 149.533h36.66M2 164l367.799-.603"/>
    </g>
</svg>
