<?xml version="1.0" encoding="UTF-8"?>
<svg width="37px" height="36px" viewBox="0 0 37 36" version="1.1" xmlns="http://www.w3.org/2000/svg" xmlns:xlink="http://www.w3.org/1999/xlink">
    <!-- Generator: Sketch 47.1 (45422) - http://www.bohemiancoding.com/sketch -->
    <title>Combined shape 3316</title>
    <desc>Created with Sketch.</desc>
    <defs></defs>
    <g id="תפריט" stroke="none" stroke-width="1" fill="none" fill-rule="evenodd">
        <g id="עמוד-הבית-פלזמה-המלצה-שלנו" transform="translate(-668.000000, -827.000000)" fill="#19398A">
            <g id="Group-23" transform="translate(43.000000, 1.000000)">
                <g id="Group-16">
                    <path d="M654.874652,842.813679 L657.683206,845.638942 L656.261133,847.069479 L652.275029,843.059528 L652.275029,852.458731 C652.275029,854.620596 650.527805,856.378297 648.380056,856.378297 L645.456384,856.378297 L645.456384,857.654951 C645.456384,858.936827 644.862927,860.09902 643.826515,860.844484 C643.149297,861.329851 642.368446,861.5797 641.572324,861.5797 C641.146879,861.5797 640.717932,861.508825 640.299613,861.364287 L627.634315,857.006356 C626.059093,856.463308 625,854.973518 625,853.297019 L625,829.919527 C625,827.757662 626.747672,826 628.897416,826 L648.380056,826 C650.527805,826 652.275029,827.757662 652.275029,829.919527 L652.275029,840.545217 L656.261133,836.535093 L657.683206,837.965394 L654.874857,840.790422 L662,840.790422 L662,842.813679 L654.874652,842.813679 Z M627.502055,828.551933 C627.159313,828.905287 626.947934,829.388573 626.947934,829.919527 L626.947934,853.297019 C626.947934,854.135269 627.477379,854.880733 628.265763,855.151786 L640.929311,859.509717 C641.530749,859.717394 642.175757,859.6219 642.693637,859.249384 C643.211721,858.877103 643.508694,858.296203 643.508694,857.654951 L643.508694,836.320112 C643.508694,835.514218 643.028358,834.799538 642.28334,834.500646 L627.502055,828.551933 Z M645.456384,854.418416 L648.380056,854.418416 C649.453605,854.418416 650.327339,853.539094 650.327339,852.458731 L650.327339,829.919527 C650.327339,828.839399 649.453605,827.959646 648.380056,827.959646 L631.276129,827.959646 L643.007713,832.680748 C644.495997,833.278729 645.456384,834.70742 645.456384,836.320112 L645.456384,854.418416 Z M641.803004,846.088969 C641.803004,847.036182 641.041088,847.803752 640.099351,847.803752 C639.157858,847.803752 638.393906,847.036182 638.393906,846.088969 C638.393906,845.141953 639.157858,844.374147 640.099351,844.374147 C641.041088,844.374147 641.803004,845.141953 641.803004,846.088969 Z" id="Combined-shape-3316"></path>
                </g>
            </g>
        </g>
    </g>
</svg>