<?xml version="1.0" encoding="UTF-8" standalone="no"?>
<svg width="13px" height="22px" viewBox="0 0 13 22" version="1.1" xmlns="http://www.w3.org/2000/svg" xmlns:xlink="http://www.w3.org/1999/xlink">
    <!-- Generator: Sketch 47 (45396) - http://www.bohemiancoding.com/sketch -->
    <title>if_jee-01_2180485 copy</title>
    <desc>Created with Sketch.</desc>
    <defs></defs>
    <g id="עמוד-הטבה" stroke="none" stroke-width="1" fill="none" fill-rule="evenodd" stroke-linecap="round" stroke-linejoin="round">
        <g id="PAGE-1" transform="translate(-289.000000, -453.000000)" stroke="#34495E">
            <g id="Group-17" transform="translate(167.000000, 83.000000)">
                <g id="Group-15">
                    <g id="Group-28" transform="translate(123.000000, 370.000000)">
                        <g id="if_jee-01_2180485-copy" transform="translate(0.000000, 1.000000)">
                            <path d="M11,0.140905096 L10.8960763,3.69035424 C10.8960763,3.69035424 10.4413015,3.67184339 8.84494062,3.69035424 C7.27642774,3.7088651 7.25786244,4.87486212 7.25786244,4.93037973 L7.23929714,7.88239025 L10.8960763,7.94717077 L10.3670478,11.7227798 L7.25786244,11.7227798 L7.17433359,19.6811694 L3.40618512,19.6811694 L3.30409096,11.7412907 L0,11.7227798 L0.0928115018,7.88239773 L3.34121407,7.88239773 C3.34121407,7.88239773 3.34121407,5.10682348 3.34121407,5.10621791 C3.34121407,4.02011064 3.60159314,2.84148646 4.22237597,1.93557594 C4.76998483,1.13643926 5.59791771,0.609126581 6.52117396,0.339261328 C6.52117396,0.339253852 8.45740874,-0.266543065 11,0.140905096 Z" id="Shape"></path>
                        </g>
                    </g>
                </g>
            </g>
        </g>
    </g>
</svg>