<?xml version="1.0" encoding="UTF-8" standalone="no"?>
<svg width="25px" height="22px" viewBox="0 0 25 22" version="1.1" xmlns="http://www.w3.org/2000/svg" xmlns:xlink="http://www.w3.org/1999/xlink">
    <!-- Generator: Sketch 47 (45396) - http://www.bohemiancoding.com/sketch -->
    <title>Group 27</title>
    <desc>Created with Sketch.</desc>
    <defs></defs>
    <g id="עמוד-הטבה" stroke="none" stroke-width="1" fill="none" fill-rule="evenodd" stroke-linecap="round" stroke-linejoin="round">
        <g id="PAGE-1" transform="translate(-382.000000, -453.000000)" stroke="#34495E">
            <g id="Group-17" transform="translate(167.000000, 83.000000)">
                <g id="Group-15">
                    <g id="Group-28" transform="translate(123.000000, 370.000000)">
                        <g id="Group-27" transform="translate(93.000000, 1.000000)">
                            <path d="M2.65384615,7.54940711 C2.7422834,7.10762648 2.88105777,6.67615274 3.07088034,6.26767284 C3.22080032,5.94506086 3.40256134,5.63678806 3.61650241,5.34911924 C4.46887669,4.21712028 5.64399399,3.63636364 6.83566434,3.63636364" id="Shape"></path>
                            <path d="M12.3794449,1.69030322 C13.5971412,0.559103061 15.0977307,0 16.6106297,0 C18.3818203,0 20.128418,0.767136695 21.3953089,2.26240032 C23.6584984,4.96688363 23.4985961,9.03659803 21.1001061,11.5330477 L12.5318672,19.5835272 C11.9395437,20.1388243 11.0481554,20.1388243 10.4558319,19.5835272 L1.89989388,11.5330477 C-0.498596137,9.0496105 -0.658498377,4.96688363 1.60469108,2.26240032 C2.87158201,0.767136695 4.61817966,0 6.38937027,0 C7.88996849,0 9.40285884,0.559103061 10.6205551,1.69030322 L11.4938452,2.50945293 L12.3794449,1.69030322 Z" id="Shape"></path>
                        </g>
                    </g>
                </g>
            </g>
        </g>
    </g>
</svg>