<svg xmlns="http://www.w3.org/2000/svg" width="52" height="43" viewBox="0 0 52 43">
    <g fill="none" fill-rule="evenodd" stroke="#FFF" stroke-linecap="round" stroke-linejoin="round" stroke-width="2">
        <path d="M25.987 6.144l1.925-1.679A13.885 13.885 0 0 1 37.11 1c3.85 0 7.647 1.573 10.402 4.638a13.785 13.785 0 0 1-.642 19.005L28.243 41.146a3.409 3.409 0 0 1-4.513 0L5.13 24.643c-5.214-5.091-5.562-13.46-.642-19.005A13.924 13.924 0 0 1 14.89 1c3.262 0 6.551 1.146 9.198 3.465l1.899 1.68"/>
        <path d="M6.357 13.756c.208-.926.534-1.83.98-2.686.352-.676.779-1.322 1.281-1.925 2.002-2.372 4.762-3.59 7.56-3.59"/>
    </g>
</svg>
