<?xml version="1.0" encoding="UTF-8"?>
<svg width="24px" height="20px" viewBox="0 0 24 20" version="1.1" xmlns="http://www.w3.org/2000/svg" xmlns:xlink="http://www.w3.org/1999/xlink">
    <!-- Generator: Sketch 47 (45396) - http://www.bohemiancoding.com/sketch -->
    <title>Artboard</title>
    <desc>Created with Sketch.</desc>
    <defs></defs>
    <g id="Page-18" stroke="none" stroke-width="1" fill="none" fill-rule="evenodd" stroke-linecap="round" stroke-linejoin="round">
        <g id="Artboard" stroke="#E00000">
            <g id="if_jee-04_2239656" transform="translate(1.000000, 1.000000)">
                <g id="Group-11">
                    <path d="M11.1290603,2.2451769 L11.9865533,1.51229366 C13.165603,0.500222683 14.6185677,0 16.0834513,0 C17.7984289,0 19.489594,0.686347835 20.7162771,2.02414195 C22.9076388,4.44381015 22.7528114,8.08493393 20.4304433,10.318477 L12.1341382,17.5211427 C11.5606135,18.0179602 10.6975155,18.0179602 10.1239908,17.5211427 L1.83959616,10.318477 C-0.482771984,8.09657603 -0.637599341,4.44381015 1.55376234,2.02414195 C2.78044542,0.686347835 4.47161057,0 6.18658817,0 C7.63956129,0 9.10443641,0.500222683 10.2834861,1.51229366 L11.1290603,2.2451769" id="Shape"></path>
                    <path d="M2.39774532,5.70647182 C2.49077289,5.28286736 2.63675034,4.86914575 2.83642563,4.47747194 C2.99412719,4.16813317 3.18532251,3.87254364 3.41036816,3.59671037 C4.30698486,2.51128524 5.54309653,1.95442266 6.79662042,1.95442266" id="Shape"></path>
                </g>
            </g>
        </g>
    </g>
</svg>