<svg xmlns="http://www.w3.org/2000/svg" width="44" height="48" viewBox="0 0 44 48">
    <g fill="none" fill-rule="evenodd" stroke="#FFF" stroke-width="2">
        <path d="M21.57 21.569L1.987 12.253a1 1 0 0 1 0-1.806L21.57 1.131a1 1 0 0 1 .86 0l19.583 9.316a1 1 0 0 1 0 1.806L22.43 21.569a1 1 0 0 1-.86 0z"/>
        <path d="M37.052 20.933l4.977 2.403a1 1 0 0 1 0 1.801l-19.594 9.461a1 1 0 0 1-.87 0l-19.594-9.46a1 1 0 0 1 0-1.802l4.977-2.403 14.617 7.058a1 1 0 0 0 .87 0l14.617-7.058z"/>
        <path d="M37.052 33.2l4.977 2.403a1 1 0 0 1 0 1.801l-19.594 9.461a1 1 0 0 1-.87 0l-19.594-9.46a1 1 0 0 1 0-1.802L6.948 33.2l14.617 7.058a1 1 0 0 0 .87 0L37.052 33.2z"/>
    </g>
</svg>
