<?xml version="1.0" encoding="UTF-8"?>
<svg width="30px" height="24px" viewBox="0 0 30 24" version="1.1" xmlns="http://www.w3.org/2000/svg" xmlns:xlink="http://www.w3.org/1999/xlink">
    <!-- Generator: Sketch 47 (45396) - http://www.bohemiancoding.com/sketch -->
    <title>if_jee-04_2239656</title>
    <desc>Created with Sketch.</desc>
    <defs></defs>
    <g id="עמוד-הבית-חדש" stroke="none" stroke-width="1" fill="none" fill-rule="evenodd" stroke-linecap="round" stroke-linejoin="round">
        <g id="עמוד-הבית-מועדפים" transform="translate(-585.000000, -776.000000)">
            <g id="Group-14" transform="translate(573.030325, 759.654472)">
                <g id="if_jee-04_2239656" transform="translate(13.015855, 17.349904)">
                    <g id="Group-11">
                        <path d="M13.9380957,2.79892072 L15.0120247,1.88528131 C16.488673,0.623596133 18.3083739,0 20.143002,0 C22.2908493,0 24.4088738,0.855626644 25.9451783,2.52337036 C28.6896516,5.5398184 28.495745,10.0789782 25.5871985,12.8633958 L15.1968608,21.8425058 C14.4785753,22.4618568 13.3976267,22.4618568 12.6793413,21.8425058 L2.30392025,12.8633958 C-0.604626263,10.0934917 -0.798532888,5.5398184 1.94594042,2.52337036 C3.48224499,0.855626644 5.60026944,0 7.74811674,0 C9.56782818,0 11.4024458,0.623596133 12.8790941,1.88528131 L13.9380957,2.79892072" id="Shape" stroke="#E00000" fill="#E00000"></path>
                        <path d="M3.00294931,7.11389923 C3.11945754,6.58581821 3.30228049,6.07005752 3.55235491,5.58178243 C3.74986121,5.19614927 3.98931526,4.8276564 4.27116367,4.48379243 C5.39409131,3.13066124 6.94220429,2.43645571 8.51212444,2.43645571" id="Shape" stroke="#FFFFFF"></path>
                    </g>
                </g>
            </g>
        </g>
    </g>
</svg>