<?xml version="1.0" encoding="UTF-8"?>
<svg width="48px" height="59px" viewBox="0 0 48 59" version="1.1" xmlns="http://www.w3.org/2000/svg" xmlns:xlink="http://www.w3.org/1999/xlink">
    <!-- Generator: Sketch 47.1 (45422) - http://www.bohemiancoding.com/sketch -->
    <title>Page 1</title>
    <desc>Created with Sketch.</desc>
    <defs></defs>
    <g id="תפריט" stroke="none" stroke-width="1" fill="none" fill-rule="evenodd">
        <g id="עמוד-הבית-פלזמה-המלצה-שלנו" transform="translate(-573.000000, -205.000000)" stroke-width="2" stroke="#DD2D70">
            <g id="Group-23" transform="translate(43.000000, 1.000000)">
                <g id="Group-16">
                    <g id="Group-24" transform="translate(108.000000, 172.000000)">
                        <g id="Page-1" transform="translate(423.000000, 32.000000)">
                            <g id="Group-5" transform="translate(0.000000, 11.893400)">
                                <polygon id="Stroke-1" points="0 8 46 8 46 0 0 0"></polygon>
                                <polygon id="Stroke-3" points="2 46 44 46 44 8 2 8"></polygon>
                                <path d="M23,22 L23,46" id="Stroke-4"></path>
                            </g>
                            <path d="M23,36.3934 L23,4.8934" id="Stroke-6"></path>
                            <g id="Group-19" transform="translate(14.000000, 0.893400)">
                                <path d="M9,11.375 C9,11.375 -3,8 1,2 C5,-4 10,6 9,8" id="Stroke-7"></path>
                                <path d="M9.3135,11.375 C9.3135,11.375 21.3135,8 17.3135,2 C13.3135,-4 8.3135,6 9.3135,8" id="Stroke-9"></path>
                            </g>
                        </g>
                    </g>
                </g>
            </g>
        </g>
    </g>
</svg>