<?xml version="1.0" encoding="UTF-8"?>
<svg width="49px" height="45px" viewBox="0 0 49 45" version="1.1" xmlns="http://www.w3.org/2000/svg" xmlns:xlink="http://www.w3.org/1999/xlink">
    <!-- Generator: Sketch 47.1 (45422) - http://www.bohemiancoding.com/sketch -->
    <title>Group</title>
    <desc>Created with Sketch.</desc>
    <defs></defs>
    <g id="תפריט" stroke="none" stroke-width="1" fill="none" fill-rule="evenodd" stroke-linecap="round" stroke-linejoin="round">
        <g id="עמוד-הבית-פלזמה-המלצה-שלנו" transform="translate(-239.000000, -211.000000)" stroke="#FFFFFF" fill-rule="nonzero" stroke-width="2">
            <g id="Group-23" transform="translate(43.000000, 1.000000)">
                <g id="Group-16">
                    <g id="Group-24" transform="translate(108.000000, 172.000000)">
                        <g id="Group" transform="translate(89.000000, 39.000000)">
                            <path d="M43.4059551,6.96841296 C41.4208836,6.96841296 39.8118086,8.60144312 39.8118086,10.6160714 C39.8118086,11.6028209 40.2015987,12.4946994 40.8287877,13.1514731 L33.4504227,20.4109588 L25.7959916,8.09094738 C27.0099515,7.31439535 27.8225272,5.95113652 27.8225272,4.38700562 C27.8225272,1.96427981 25.8872805,0 23.5,0 C21.1128091,0 19.1775565,1.96427981 19.1775565,4.38700562 C19.1775565,5.94816752 19.9868989,7.31004952 21.1973059,8.08766299 L13.5460184,20.4109588 L6.17067438,13.1518976 C6.7982877,12.4953363 7.188275,11.6031394 7.188275,10.6160714 C7.188275,8.60144312 5.57910147,6.96841296 3.59413449,6.96841296 C1.60916751,6.96841296 0,8.6014431 0,10.6160714 C0,12.6304873 1.60916755,14.2635144 3.59413451,14.2635144 C3.81242102,14.2635144 4.02392139,14.2361688 4.23166261,14.198221 L7.63957975,31 L39.3602947,31 L42.7683194,14.198221 C42.9759561,14.2363781 43.1874535,14.2635144 43.4059551,14.2635144 C45.3909191,14.2635144 47,12.6304873 47,10.6160714 C47,8.6014431 45.3909191,6.96841296 43.4059551,6.96841296 Z" id="Shape"></path>
                            <polygon id="Shape" points="8.33169401 34.5 6.5 42.5 40.5 42.5 38.668306 34.5"></polygon>
                        </g>
                    </g>
                </g>
            </g>
        </g>
    </g>
</svg>
