<?xml version="1.0" encoding="UTF-8"?>
<svg width="55px" height="51px" viewBox="0 0 55 51" version="1.1" xmlns="http://www.w3.org/2000/svg" xmlns:xlink="http://www.w3.org/1999/xlink">
    <!-- Generator: Sketch 47.1 (45422) - http://www.bohemiancoding.com/sketch -->
    <title>Page 1</title>
    <desc>Created with Sketch.</desc>
    <defs></defs>
    <g id="תפריט" stroke="none" stroke-width="1" fill="none" fill-rule="evenodd">
        <g id="עמוד-הבית-פלזמה-המלצה-שלנו" transform="translate(-401.000000, -211.000000)">
            <g id="Group-23" transform="translate(43.000000, 1.000000)">
                <g id="Group-16">
                    <g id="Group-24" transform="translate(108.000000, 172.000000)">
                        <g id="Page-1" transform="translate(251.000000, 39.000000)">
                            <polyline id="Stroke-1" stroke="#1877D1" stroke-width="2" points="21.4175 49 0.0005 49 0.0005 0 27.2495 0"></polyline>
                            <path d="M36,10 L36,17" id="Stroke-3" stroke="#1877D1" stroke-width="1.748"></path>
                            <path d="M12,12 L29,12" id="Stroke-4" stroke="#1877D1" stroke-width="2"></path>
                            <path d="M12,16 L29,16" id="Stroke-5" stroke="#1877D1" stroke-width="2"></path>
                            <path d="M12,24 L29,24" id="Stroke-6" stroke="#1877D1" stroke-width="2"></path>
                            <path d="M12,28 L21,28" id="Stroke-7" stroke="#1877D1" stroke-width="2"></path>
                            <path d="M12,35 L21,35" id="Stroke-8" stroke="#1877D1" stroke-width="1.455"></path>
                            <path d="M12,39 L21,39" id="Stroke-9" stroke="#1877D1" stroke-width="1.455"></path>
                            <polyline id="Stroke-10" stroke="#1877D1" stroke-width="1.455" points="4.5 13.5 6.5 15.5 9.5 12.5"></polyline>
                            <polyline id="Stroke-11" stroke="#1877D1" stroke-width="1.455" points="4.5 24.5 6.5 26.5 9.5 23.5"></polyline>
                            <polyline id="Stroke-12" stroke="#1877D1" stroke-width="1.455" points="4.5 36.5 6.5 38.5 9.5 35.5"></polyline>
                            <g id="Group-21" transform="translate(24.000000, 0.000000)">
                                <polygon id="Stroke-13" stroke="#1877D1" stroke-width="2" points="0 33 29 33 29 27 0 27"></polygon>
                                <polygon id="Stroke-15" stroke="#1877D1" stroke-width="2" points="1 49 28 49 28 33 1 33"></polygon>
                                <polygon id="Stroke-16" stroke="#1877D1" stroke-width="2" points="12 49 17 49 17 27 12 27"></polygon>
                                <path d="M16,26 C16,26 14,20 19,20 C24,20 18.917,27 15.458,27" id="Stroke-17" stroke="#1877D1" stroke-width="2"></path>
                                <path d="M13,27 C13,27 7,24 10,21 C13,18 16,24 14.5,27" id="Stroke-18" stroke="#1877D1" stroke-width="2"></path>
                                <path d="M6,0.2744 L6,7.0004 L13,7.0004 L6.194,0.1944 C6.123,0.1224 6,0.1734 6,0.2744 Z" id="Stroke-19" stroke="#1877D1" stroke-width="2"></path>
                                <polygon id="Fill-20" fill-opacity="0.1" fill="#FFFFFF" points="0 33 29 33 29 27 0 27"></polygon>
                            </g>
                        </g>
                    </g>
                </g>
            </g>
        </g>
    </g>
</svg>