<svg xmlns="http://www.w3.org/2000/svg" width="28" height="38" viewBox="0 0 28 38">
    <g fill="none" fill-rule="evenodd" stroke="#8F8F8F" stroke-linecap="round" stroke-linejoin="round" stroke-width="2" transform="translate(1 1)">
        <path d="M24.362 19.635l-10.398 15.84c-.46.7-1.472.7-1.931 0L1.635 19.635l.002-.005A13.205 13.205 0 0 1 0 13.22C0 5.927 5.812 0 13 0c7.171 0 13 5.927 13 13.22 0 2.33-.59 4.511-1.637 6.41l-.001.005zM15 4c2.803.113 5.227 1.551 6.651 3.661"/>
        <ellipse cx="13.383" cy="15.442" rx="6.953" ry="7.017" transform="rotate(-3.621 13.383 15.442)"/>
    </g>
</svg>
