<svg xmlns="http://www.w3.org/2000/svg" width="35" height="47" viewBox="0 0 35 47">
    <g fill="none" fill-rule="evenodd" stroke="#FFF" stroke-linecap="round" stroke-linejoin="round" stroke-width="2" transform="translate(1 1)">
        <path d="M30.92 24.544l-13.197 19.8a1.472 1.472 0 0 1-2.45 0l-13.198-19.8.003-.007A16.31 16.31 0 0 1 0 16.524C0 7.41 7.377 0 16.5 0 25.602 0 33 7.409 33 16.524c0 2.914-.748 5.64-2.078 8.013l-.002.007zM18.419 4.576c3.557.141 6.634 1.939 8.441 4.577"/>
        <ellipse cx="16.5" cy="18.686" rx="8.826" ry="8.771" transform="rotate(-3.621 16.5 18.686)"/>
    </g>
</svg>
