<svg xmlns="http://www.w3.org/2000/svg" width="331" height="232" viewBox="0 0 331 232">
    <g fill="none" fill-rule="evenodd">
        <path stroke="#1C2632" stroke-linecap="round" stroke-linejoin="round" d="M92 77v26"/>
        <path fill="#1C2632" d="M122.483 76.198a5.111 5.111 0 1 1-10.223 0 5.111 5.111 0 0 1 10.223 0M172.136 76.198a5.111 5.111 0 1 1-10.223 0 5.111 5.111 0 0 1 10.223 0"/>
        <path fill="#E4EEFB" d="M106.393 10.506c-7.064 3.844-12.57 10.379-13.118 19.689v32.129s-7.302 0-7.302 10.222v16.065s0 4.381 5.842 5.841v11.99c0 2.959.511 5.883 1.517 8.663 2.277 6.296 6.97 17.182 13.087 20.238l5.841 1.278s-13.873-18.072-13.873-31.216V33.846s0-13.144 8.006-23.34M136.081 6.87c7.028 10.994 25.832 14.604 25.832 14.604-19.716-6.532-16.459-15.984-16.459-15.984l-8.916-.143h-1.701l1.244 1.524zM37.302 154.651a3.65 3.65 0 1 1-7.3.001 3.65 3.65 0 0 1 7.3-.001"/>
        <path stroke="#1C2632" stroke-linecap="round" stroke-linejoin="round" stroke-width="4" d="M111.53 195.22c0 13.307-11.442 24.097-25.557 24.097-14.115 0-25.557-10.79-25.557-24.097 0-13.307 11.442-24.096 25.557-24.096 14.115 0 25.557 10.79 25.557 24.096zM212.297 195.22c0 13.307-11.442 24.097-25.557 24.097-14.115 0-25.557-10.79-25.557-24.097 0-13.307 11.442-24.096 25.557-24.096 14.115 0 25.557 10.79 25.557 24.096zM170.676 21.433s-21.906 4.381-37.97-18.985c0 0-37.97 2.92-39.431 27.748v32.128s-7.302 0-7.302 10.223v16.064s0 4.382 5.841 5.842v11.99c0 2.957.513 5.88 1.518 8.663 2.278 6.294 6.97 17.18 13.086 20.238 8.763 4.381 73.02 0 73.02 0s13.144-17.525 13.144-23.366V94.453s7.302-2.92 7.302-8.762V66.705s-1.46-4.38-7.302-4.38V36.036S189.66 3.908 135.626 5.37M120.292 13.401s-12.69-.812-14.379-2.595M93.275 51.006c0-9.127 29.208-12.048 30.668-20.81M121.752 26.545s17.525 27.382 70.83 22.453M192.582 76.928v21.359M107.879 74.007s2.92-14.604 16.064-7.302M160.453 66.705s13.144-7.302 16.064 7.302"/>
        <path stroke="#1C2632" stroke-linecap="round" stroke-linejoin="round" stroke-width="4" d="M135.626 90.072s-7.302 5.841 4.381 7.302h4.382s7.302-1.46 2.92-7.302M120.292 122.93l2.92-1.46v-2.92M161.183 122.93l-2.92-1.46v-2.92M123.213 121.47s18.985 16.065 35.05 0"/>
        <path fill="#E4EEFB" d="M77.21 228.81l-8.092-89.018c-.36-3.957 2.756-7.369 6.728-7.369H205.74c3.931 0 7.033 3.346 6.737 7.269l-6.752 89.117H77.21z"/>
        <path stroke="#1C2632" stroke-linecap="round" stroke-linejoin="round" stroke-width="4" d="M77.21 228.81l-8.092-89.018c-.36-3.957 2.756-7.369 6.728-7.369H205.74c3.931 0 7.033 3.346 6.737 7.269l-6.752 89.117H77.21z"/>
        <path stroke="#1C2632" stroke-linecap="round" stroke-linejoin="round" stroke-width="4" d="M149.5 176.965a8.764 8.764 0 0 1-8.762 8.763 8.764 8.764 0 0 1-8.763-8.763 8.764 8.764 0 0 1 8.763-8.762 8.764 8.764 0 0 1 8.762 8.762zM76.48 222.238h129.975M279.475 202.545v20.4c0 3.626-2.967 6.594-6.595 6.594h-11.636c-3.628 0-6.595-2.968-6.595-6.594v-20.4h24.826z"/>
        <path stroke="#1C2632" stroke-linecap="round" stroke-linejoin="round" stroke-width="2" d="M254.65 220.593a5.842 5.842 0 1 1-.001-11.315M254.821 217.357a2.92 2.92 0 1 1-.164-4.946"/>
        <path stroke="#1C2632" stroke-linecap="round" stroke-linejoin="round" stroke-width="4" d="M2 229.54h23.366M34.129 229.54h216.138M283.856 229.54H297M260.49 197.41s-4.381-5.84-1.46-11.682c2.92-5.842 10.222-13.144 5.841-20.446M270.713 190.109s-4.381-5.842-1.46-11.683c2.92-5.842 8.762-13.144 4.38-20.446M276.554 174.045c-7.302 8.762 1.46 13.143 1.46 21.905M64.797 56.483a5.111 5.111 0 1 1-10.223 0 5.111 5.111 0 0 1 10.223 0zM242.965 125.121a8.033 8.033 0 0 1-16.064 0 8.033 8.033 0 0 1 12.26-6.831"/>
        <path fill="#E4EEFB" d="M324.564 102.762a4.38 4.38 0 1 1-8.761 0 4.38 4.38 0 0 1 8.761 0"/>
        <path stroke="#1C2632" stroke-linecap="round" stroke-linejoin="round" stroke-width="4" d="M328.215 102.762a8.033 8.033 0 0 1-16.064 0 8.033 8.033 0 0 1 16.064 0zM41.246 108.953L30.293 98M30.293 108.471L41.707 98M278.745 60.134c0 6.05-4.903 10.953-10.953 10.953s-10.953-4.903-10.953-10.953 4.903-10.953 10.953-10.953 10.953 4.902 10.953 10.953zM250.665 41.164a25.623 25.623 0 0 1 7.18-4.58"/>
        <path stroke="#1C2632" stroke-linecap="round" stroke-linejoin="round" stroke-width="4" d="M285.857 42.056a25.48 25.48 0 0 1 7.492 18.078c0 14.115-11.442 25.557-25.557 25.557-14.115 0-25.557-11.442-25.557-25.557 0-5.059 1.47-9.775 4.006-13.744M267.792 34.577c4.701 0 9.104 1.269 12.888 3.483"/>
    </g>
</svg>
