<svg xmlns="http://www.w3.org/2000/svg" xmlns:xlink="http://www.w3.org/1999/xlink" width="83" height="58" viewBox="0 0 83 58">
    <defs>
        <path id="a" d="M46.071 17.139l3.637 3.637-14.616 14.617 3.75 3.75L53.245 24.74a7.003 7.003 0 0 1-1.23 8.243L32.984 52.016a7 7 0 0 1-9.9 0L4.05 32.983a7 7 0 0 1 0-9.9L23.083 4.05a7 7 0 0 1 9.9 0l9.432 9.433L31.74 24.16a5.04 5.04 0 0 0 .094 7.218L46.07 17.139z"/>
    </defs>
    <g fill="none" fill-rule="evenodd">
        <rect width="41" height="41" x="35.491" y="8.491" fill="#FFF" rx="7" transform="rotate(-45 55.991 28.991)"/>
        <use fill="#FFF" xlink:href="#a"/>
        <path stroke="#2E72A5" d="M46.071 17.846L31.843 32.075l-.354-.336a5.54 5.54 0 0 1-.203-7.831l.1-.103 10.322-10.322-9.079-9.08a6.5 6.5 0 0 0-9.192 0L4.404 23.438a6.5 6.5 0 0 0 0 9.192l19.033 19.033a6.5 6.5 0 0 0 9.192 0l19.033-19.033a6.504 6.504 0 0 0 1.433-7.031L38.842 39.85l-4.457-4.457L49 20.776l-2.93-2.93z"/>
    </g>
</svg>
