<?xml version="1.0" encoding="UTF-8" standalone="no"?>
<svg width="51px" height="51px" viewBox="0 0 51 51" version="1.1" xmlns="http://www.w3.org/2000/svg" xmlns:xlink="http://www.w3.org/1999/xlink">
    <!-- Generator: Sketch 47 (45396) - http://www.bohemiancoding.com/sketch -->
    <title>speech-bubble</title>
    <desc>Created with Sketch.</desc>
    <defs>
        <linearGradient x1="29.0652902%" y1="10.5329241%" x2="109.670759%" y2="93.4933036%" id="linearGradient-1">
            <stop stop-color="#1576C8" offset="0%"></stop>
            <stop stop-color="#05709D" offset="100%"></stop>
        </linearGradient>
    </defs>
    <g id="אזור-אישי" stroke="none" stroke-width="1" fill="none" fill-rule="evenodd">
        <g id="צור-קשר-" transform="translate(-638.000000, -406.000000)" fill-rule="nonzero" fill="url(#linearGradient-1)">
            <g id="speech-bubble" transform="translate(638.000000, 406.000000)">
                <path d="M35,17.5 C35,27.165 27.165,35 17.5,35 C13.8422222,35 10.4471111,33.8771111 7.63911111,31.9582222 L0.743222222,34.2567778 L3.04177778,27.361 C1.12288889,24.5528889 0,21.1577778 0,17.5 C0,7.835 7.835,0 17.5,0 C27.165,0 35,7.835 35,17.5 Z M51,33.0897123 C51,36.8332467 49.8507999,40.3080699 47.8869482,43.1819035 L50.2394765,50.2393529 L43.1820051,47.8869077 C40.3080952,49.850785 36.8334308,51 33.089945,51 C25.0686284,51 18.280547,45.7261878 16,38.4572265 C16.3885629,38.478264 16.7783767,38.4912276 17.1698962,38.4912276 C20.0467627,38.4912276 22.8393667,37.927082 25.4701548,36.8141424 C28.0095163,35.7400937 30.289381,34.2032204 32.2464099,32.2461661 C34.2034387,30.2891118 35.7404057,28.0092175 36.8144405,25.469823 C37.9271382,22.8390007 38.4913902,20.0463604 38.4913902,17.1694565 C38.4913902,16.7780456 38.4800187,16.3882268 38.4590952,16 C45.7270524,18.2811452 51,25.0689737 51,33.0897123 Z" id="Combined-Shape"></path>
            </g>
        </g>
    </g>
</svg>