<?xml version="1.0" encoding="UTF-8"?>
<svg width="39px" height="39px" viewBox="0 0 39 39" version="1.1" xmlns="http://www.w3.org/2000/svg" xmlns:xlink="http://www.w3.org/1999/xlink">
    <!-- Generator: Sketch 47.1 (45422) - http://www.bohemiancoding.com/sketch -->
    <title>Combined shape 3310</title>
    <desc>Created with Sketch.</desc>
    <defs></defs>
    <g id="תפריט" stroke="none" stroke-width="1" fill="none" fill-rule="evenodd">
        <g id="עמוד-הבית-פלזמה-המלצה-שלנו" transform="translate(-675.000000, -55.000000)" fill="#FFFFFF">
            <g id="Group-23" transform="translate(43.000000, 1.000000)">
                <g id="Group-16">
                    <path d="M638.910253,59.816701 L641.795669,62.706422 C641.941219,62.853202 642.02572,63.048116 642.02572,63.255986 C642.02572,63.463159 641.941219,63.658032 641.797473,63.804607 C641.501002,64.09911 640.991413,64.098167 640.69855,63.805017 L637.808255,60.914886 C637.662541,60.768106 637.580049,60.573397 637.580049,60.365896 C637.580049,60.158354 637.662541,59.963276 637.808255,59.816332 C638.099314,59.523141 638.610707,59.523141 638.910253,59.816701 Z M641.795669,84.291815 L638.910253,87.181536 C638.608903,87.475096 638.099314,87.475096 637.808255,87.181536 C637.50547,86.878546 637.50547,86.385644 637.808255,86.082818 L640.69855,83.193425 L640.69855,83.193261 C640.844428,83.046481 641.041146,82.96567 641.247909,82.96567 C641.454877,82.96567 641.650119,83.046481 641.795669,83.193425 C641.941219,83.340205 642.02572,83.535283 642.02572,83.74262 C642.02572,83.949957 641.941219,84.145199 641.795669,84.291815 Z M651.491103,63.165499 C657.157672,63.165499 661.765621,67.773981 661.765621,73.439033 C661.765621,79.104044 657.157672,83.712526 651.491103,83.712526 C645.827609,83.712526 641.216585,79.104044 641.216585,73.439033 C641.216585,67.773981 645.827609,63.165499 651.491103,63.165499 Z M651.491103,82.159159 C656.300813,82.159159 660.212049,78.24739 660.212049,73.439033 C660.212049,68.63084 656.300813,64.718907 651.491103,64.718907 C646.683033,64.718907 642.771797,68.63084 642.771797,73.439033 C642.771797,78.24739 646.683033,82.159159 651.491103,82.159159 Z M632.917652,74.275802 C632.488956,74.275802 632.140087,73.92763 632.140087,73.499221 C632.140087,73.070771 632.488956,72.722435 632.917652,72.722435 L637.003999,72.722435 C637.434294,72.722435 637.781933,73.070771 637.781933,73.499221 C637.781933,73.92763 637.434294,74.275802 637.003999,74.275802 L632.917652,74.275802 Z M664.075356,87.181003 L661.183298,84.291077 C661.035944,84.144092 660.956486,83.94885 660.956486,83.741513 C660.956486,83.533971 661.035944,83.339098 661.183298,83.192113 C661.330242,83.045743 661.528928,82.965096 661.734092,82.965096 C661.9427,82.965096 662.134539,83.045743 662.283287,83.192318 L665.173582,86.082408 C665.319501,86.229557 665.400353,86.424471 665.400353,86.631808 C665.400353,86.839514 665.319501,87.034018 665.173582,87.181003 C664.882523,87.474891 664.368055,87.475096 664.075356,87.181003 Z M670.064718,74.275802 L665.977838,74.275802 C665.547707,74.275802 665.198469,73.92763 665.198469,73.499221 C665.198469,73.070771 665.547707,72.722435 665.977838,72.722435 L670.064718,72.722435 C670.492881,72.722435 670.837076,73.070771 670.837076,73.499221 C670.837076,73.92763 670.492881,74.275802 670.064718,74.275802 Z M651.491103,54.14923 C651.919635,54.14923 652.267069,54.497976 652.267069,54.926385 L652.267069,59.013552 C652.267069,59.441592 651.919635,59.790297 651.491103,59.790297 C651.064211,59.790297 650.714932,59.441592 650.714932,59.013552 L650.714932,54.926385 C650.714932,54.497976 651.064211,54.14923 651.491103,54.14923 Z M651.491103,92.848802 C651.064211,92.848802 650.714932,92.500261 650.714932,92.072016 L650.714932,87.985095 C650.714932,87.556276 651.064211,87.207735 651.491103,87.207735 C651.919635,87.207735 652.267069,87.556276 652.267069,87.985095 L652.267069,92.072016 C652.267069,92.500261 651.919635,92.848802 651.491103,92.848802 Z M664.622788,59.590217 C664.831355,59.590217 665.026597,59.671028 665.170548,59.818013 C665.319501,59.964752 665.400353,60.159666 665.400353,60.367003 C665.400353,60.57434 665.319501,60.769213 665.170548,60.915993 L662.283287,63.805919 C661.988989,64.099643 661.476161,64.098536 661.183298,63.806493 C660.880308,63.503298 660.880308,63.010191 661.183298,62.70757 L664.075356,59.817808 C664.220906,59.671028 664.415984,59.590217 664.622788,59.590217 Z" id="Combined-shape-3310"></path>
                </g>
            </g>
        </g>
    </g>
</svg>